G04 ================== begin FILE IDENTIFICATION RECORD ==================*
G04 Layout Name:  esquematicotesis.brd*
G04 Film Name:    1-SSTOP*
G04 File Format:  Gerber RS274X*
G04 File Origin:  Cadence Allegro 24.1-S005*
G04 Origin Date:  Sun Oct  5 21:57:09 2025*
G04 *
G04 Layer:  REF DES/SILKSCREEN_TOP*
G04 Layer:  PACKAGE GEOMETRY/SILKSCREEN_TOP*
G04 Layer:  DEVICE TYPE/ASSEMBLY_TOP*
G04 Layer:  DEVICE TYPE/ASSEMBLY_BOTTOM*
G04 Layer:  DEVICE TYPE/SILKSCREEN_TOP*
G04 Layer:  DEVICE TYPE/SILKSCREEN_BOTTOM*
G04 Layer:  DEVICE TYPE/DISPLAY_TOP*
G04 Layer:  DEVICE TYPE/DISPLAY_BOTTOM*
G04 Layer:  BOARD GEOMETRY/SILKSCREEN_TOP*
G04 *
G04 Offset:    (0.0000 0.0000)*
G04 Mirror:    No*
G04 Mode:      Positive*
G04 Rotation:  0*
G04 FullContactRelief:  No*
G04 UndefLineWidth:     0.1000*
G04 ================== end FILE IDENTIFICATION RECORD ====================*
%FSLAX25Y25*MOMM*%
%IR0*IPPOS*OFA0.00000B0.00000*MIA0B0*SFA1.00000B1.00000*%
%ADD10C,.2*%
%ADD11C,.127*%
%ADD12C,.1524*%
%ADD13C,.508*%
%ADD14C,.1*%
G75*
%LPD*%
G75*
G54D10*
G01X1755000Y1095000D02*
G03I-10000J0D01*
G01X3580000Y821000D02*
G03I-10000J0D01*
G54D11*
G01X1630000Y1047000D02*
X1510000D01*
G01Y1293000D02*
X1630000D01*
G01X4080000Y288000D02*
Y215000D01*
X3320000D01*
Y288000D01*
G54D12*
G01X961280Y804930D02*
Y512830D01*
G01D02*
X797450D01*
G01D02*
Y804930D01*
G01X1171280D02*
Y512830D01*
G01D02*
X1007450D01*
G01D02*
Y804930D01*
G01X1371280Y512830D02*
X1207450D01*
G01D02*
Y804930D01*
G01X797450D02*
X961280D01*
G01X1264930Y1222550D02*
Y1058720D01*
G01D02*
X972830D01*
G01D02*
Y1222550D01*
G01D02*
X1264930D01*
G01X1007450Y804930D02*
X1171280D01*
G01X1207450D02*
X1371280D01*
G01X1439040Y621470D02*
Y499040D01*
G01D02*
X1670180D01*
G01D02*
Y621470D01*
G01X1371280Y804930D02*
Y512830D01*
G01X1670180Y961470D02*
X1439040D01*
G01D02*
Y839040D01*
G01D02*
X1670180D01*
G01D02*
Y961470D01*
G01X1439820Y668530D02*
X1670960D01*
G01D02*
Y790960D01*
G01D02*
X1439820D01*
G01D02*
Y668530D01*
G01X1670180Y621470D02*
X1439040D01*
G01X1837450Y1144930D02*
X2001280D01*
G01D02*
Y852830D01*
G01D02*
X1837450D01*
G01D02*
Y1144930D01*
G01X1425070Y1407450D02*
Y1571280D01*
G01D02*
X1717170D01*
G01D02*
Y1407450D01*
G01D02*
X1425070D01*
G01X2136950Y959700D02*
Y926950D01*
G01X2683050D02*
Y959700D01*
G01X2136950Y926950D02*
X2683050D01*
G01Y1440300D02*
Y1473050D01*
G01X2136950D02*
Y1440300D01*
G01X2683050Y1473050D02*
X2136950D01*
G01X3641470Y1200960D02*
X3519040D01*
G01D02*
Y969820D01*
G01D02*
X3641470D01*
G01X3752560Y1642560D02*
X3427440D01*
G01Y1317440D02*
X3752560D01*
G01X3376390Y1587380D02*
G03Y1572620I-1894J-7380D01*
G01X3559820Y1718530D02*
X3790960D01*
G01Y1840960D02*
X3559820D01*
G01D02*
Y1718530D01*
G01X3791470Y969820D02*
Y1200960D01*
G01D02*
X3669040D01*
G01D02*
Y969820D01*
G01D02*
X3791470D01*
G01X3941470D02*
Y1200960D01*
G01D02*
X3819040D01*
G01D02*
Y969820D01*
G01D02*
X3941470D01*
G01X3641470D02*
Y1200960D01*
G01X3790960Y1718530D02*
Y1840960D01*
G01X4410180Y1511470D02*
X4179040D01*
G01D02*
Y1389040D01*
G01D02*
X4410180D01*
G01Y1711470D02*
X4179040D01*
G01D02*
Y1589040D01*
G01D02*
X4410180D01*
G01X4807620Y1122280D02*
Y1027730D01*
G01Y1772270D02*
Y1727720D01*
G01Y1572280D02*
Y1527720D01*
G01Y1372280D02*
Y1327720D01*
G01Y2072270D02*
Y1977720D01*
G01X4410180Y1389040D02*
Y1511470D01*
G01Y1589040D02*
Y1711470D01*
G01X5308460Y876900D02*
X6202080D01*
G01Y2223100D02*
X5308460D01*
G01X6202080Y876900D02*
Y2223100D01*
G54D13*
G01X4761950Y591420D02*
G03X4774600Y622900I38051J2991D01*
G54D14*
G01X948550Y379280D02*
X958080Y393500D01*
X964430Y410090D01*
Y429060D01*
X954900Y450400D01*
X939030Y466990D01*
X919980Y478840D01*
X888230Y488330D01*
X859650Y490700D01*
X831080Y485950D01*
X812030Y478840D01*
X792980Y464620D01*
X780280Y448020D01*
X773930Y431430D01*
Y414840D01*
X780280Y398240D01*
X789800Y384020D01*
X802500Y372160D01*
G01X773930Y240930D02*
X964430D01*
X926330Y269380D01*
G01X773930D02*
Y212490D01*
G01X1168550Y259280D02*
X1178080Y273500D01*
X1184430Y290090D01*
Y309060D01*
X1174900Y330400D01*
X1159030Y346990D01*
X1139980Y358840D01*
X1108230Y368330D01*
X1079650Y370700D01*
X1051080Y365950D01*
X1032030Y358840D01*
X1012980Y344620D01*
X1000280Y328020D01*
X993930Y311430D01*
Y294840D01*
X1000280Y278240D01*
X1009800Y264020D01*
X1022500Y252160D01*
G01X1073300Y165970D02*
X1095530Y149380D01*
X1108230Y135150D01*
X1114580Y116190D01*
X1108230Y99590D01*
X1095530Y87740D01*
X1076480Y78260D01*
X1054250Y75890D01*
X1035200Y78260D01*
X1016150Y87740D01*
X1000280Y101970D01*
X993930Y118560D01*
X1000280Y137520D01*
X1019320Y154120D01*
X1047910Y163600D01*
X1079650Y165970D01*
X1120930Y161230D01*
X1143160Y154120D01*
X1165380Y142270D01*
X1181260Y125670D01*
X1184430Y109080D01*
X1178080Y92480D01*
X1162200Y80630D01*
G01X1368550Y379280D02*
X1378080Y393500D01*
X1384430Y410090D01*
Y429060D01*
X1374900Y450400D01*
X1359030Y466990D01*
X1339980Y478840D01*
X1308230Y488330D01*
X1279650Y490700D01*
X1251080Y485950D01*
X1232030Y478840D01*
X1212980Y464620D01*
X1200280Y448020D01*
X1193930Y431430D01*
Y414840D01*
X1200280Y398240D01*
X1209800Y384020D01*
X1222500Y372160D01*
G01X1193930Y245670D02*
X1235200Y240930D01*
X1270130Y233820D01*
X1301880Y224340D01*
X1336800Y212480D01*
X1384430Y193520D01*
Y288340D01*
G01X1065820Y1430690D02*
X1051600Y1440220D01*
X1035010Y1446570D01*
X1016040D01*
X994700Y1437040D01*
X978110Y1421170D01*
X966260Y1402120D01*
X956770Y1370370D01*
X954400Y1341790D01*
X959150Y1313220D01*
X966260Y1294170D01*
X980480Y1275120D01*
X997080Y1262420D01*
X1013670Y1256070D01*
X1030260D01*
X1046860Y1262420D01*
X1061080Y1271940D01*
X1072940Y1284640D01*
G01X1232620Y1256070D02*
Y1446570D01*
X1144900Y1310050D01*
X1263440D01*
G01X1204370Y1027000D02*
Y935980D01*
X1210800Y916930D01*
X1223670Y904230D01*
X1239760Y900000D01*
X1255850Y904230D01*
X1268720Y916930D01*
X1275150Y935980D01*
Y1027000D01*
G01X1388600Y900000D02*
Y1027000D01*
X1329080Y935980D01*
X1409520D01*
G01X1692290Y424480D02*
Y614980D01*
X1751550D01*
X1770520Y605450D01*
X1782370Y592750D01*
X1787110Y567350D01*
X1782370Y541950D01*
X1768150Y526080D01*
X1751550Y516550D01*
X1692290D01*
G01X1751550D02*
X1787110Y424480D01*
G01X1885160Y503850D02*
X1901750Y526080D01*
X1915980Y538780D01*
X1934940Y545130D01*
X1951540Y538780D01*
X1963390Y526080D01*
X1972870Y507030D01*
X1975240Y484800D01*
X1972870Y465750D01*
X1963390Y446700D01*
X1949160Y430830D01*
X1932570Y424480D01*
X1913610Y430830D01*
X1897010Y449870D01*
X1887530Y478460D01*
X1885160Y510200D01*
X1889900Y551480D01*
X1897010Y573710D01*
X1908860Y595930D01*
X1925460Y611810D01*
X1942050Y614980D01*
X1958650Y608630D01*
X1970500Y592750D01*
G01X1685130Y205520D02*
Y396020D01*
X1744390D01*
X1763360Y386490D01*
X1775210Y373790D01*
X1779950Y348390D01*
X1775210Y322990D01*
X1760990Y307120D01*
X1744390Y297590D01*
X1685130D01*
G01X1744390D02*
X1779950Y205520D01*
G01X1918300D02*
X1923040Y246790D01*
X1930150Y281720D01*
X1939630Y313470D01*
X1951490Y348390D01*
X1970450Y396020D01*
X1875630D01*
G01X1695130Y645520D02*
Y836020D01*
X1754390D01*
X1773360Y826490D01*
X1785210Y813790D01*
X1789950Y788390D01*
X1785210Y762990D01*
X1770990Y747120D01*
X1754390Y737590D01*
X1695130D01*
G01X1754390D02*
X1789950Y645520D01*
G01X1880890Y674090D02*
X1895110Y658220D01*
X1911700Y648690D01*
X1933040Y645520D01*
X1954380Y651870D01*
X1970970Y664570D01*
X1982820Y686790D01*
X1985190Y712190D01*
X1980450Y737590D01*
X1968600Y753470D01*
X1952000Y766170D01*
X1935410Y769340D01*
X1918820Y766170D01*
X1897480Y753470D01*
X1904590Y836020D01*
X1968600D01*
G01X1867200Y1347170D02*
X1852980Y1356700D01*
X1836390Y1363050D01*
X1817420D01*
X1796080Y1353520D01*
X1779490Y1337650D01*
X1767640Y1318600D01*
X1758150Y1286850D01*
X1755780Y1258270D01*
X1760530Y1229700D01*
X1767640Y1210650D01*
X1781860Y1191600D01*
X1798460Y1178900D01*
X1815050Y1172550D01*
X1831640D01*
X1848240Y1178900D01*
X1862460Y1188420D01*
X1874320Y1201120D01*
G01X1953400Y1210650D02*
X1967620Y1188420D01*
X1986580Y1175720D01*
X2007920Y1172550D01*
X2026890Y1175720D01*
X2045850Y1191600D01*
X2057700Y1210650D01*
X2060070Y1229700D01*
X2055330Y1251920D01*
X2038740Y1267800D01*
X2022140Y1274150D01*
X2000810D01*
G01X2022140D02*
X2036370Y1283670D01*
X2048220Y1299550D01*
X2052960Y1318600D01*
X2048220Y1337650D01*
X2036370Y1353520D01*
X2015030Y1363050D01*
X1993700Y1359880D01*
X1972360Y1347170D01*
G01X1520720Y1778550D02*
X1506500Y1788080D01*
X1489910Y1794430D01*
X1470940D01*
X1449600Y1784900D01*
X1433010Y1769030D01*
X1421160Y1749980D01*
X1411670Y1718230D01*
X1409300Y1689650D01*
X1414050Y1661080D01*
X1421160Y1642030D01*
X1435380Y1622980D01*
X1451980Y1610280D01*
X1468570Y1603930D01*
X1485160D01*
X1501760Y1610280D01*
X1515980Y1619800D01*
X1527840Y1632500D01*
G01X1606920D02*
X1621140Y1616630D01*
X1637730Y1607100D01*
X1659070Y1603930D01*
X1680410Y1610280D01*
X1697000Y1622980D01*
X1708850Y1645200D01*
X1711220Y1670600D01*
X1706480Y1696000D01*
X1694630Y1711880D01*
X1678030Y1724580D01*
X1661440Y1727750D01*
X1644850Y1724580D01*
X1623510Y1711880D01*
X1630620Y1794430D01*
X1694630D01*
G01X2323060Y1653500D02*
Y1526500D01*
X2387400D01*
G01X2484770D02*
Y1653500D01*
X2465470Y1628100D01*
G01Y1526500D02*
X2504070D01*
G01X3009230Y998580D02*
Y1189080D01*
X3068490D01*
X3087460Y1179550D01*
X3099310Y1166850D01*
X3104050Y1141450D01*
X3099310Y1116050D01*
X3085090Y1100180D01*
X3068490Y1090650D01*
X3009230D01*
G01X3068490D02*
X3104050Y998580D01*
G01X3247140D02*
Y1189080D01*
X3218690Y1150980D01*
G01Y998580D02*
X3275580D01*
G01X3392600Y1157330D02*
X3406820Y1176380D01*
X3423420Y1185910D01*
X3442380Y1189080D01*
X3466090Y1182730D01*
X3482680Y1166850D01*
X3487420Y1147810D01*
X3485050Y1128750D01*
X3475570Y1112880D01*
X3428160Y1081130D01*
X3406820Y1058900D01*
X3392600Y1027150D01*
X3387860Y998580D01*
X3487420D01*
G01X3149840Y1733500D02*
Y1642480D01*
X3156270Y1623430D01*
X3169140Y1610730D01*
X3185230Y1606500D01*
X3201320Y1610730D01*
X3214190Y1623430D01*
X3220620Y1642480D01*
Y1733500D01*
G01X3314770Y1606500D02*
X3326030Y1608620D01*
X3338900Y1614960D01*
X3346940Y1625550D01*
X3350160Y1640370D01*
X3346940Y1655180D01*
X3337290Y1667880D01*
X3322810Y1674230D01*
X3306730D01*
X3297070Y1678470D01*
X3289030Y1689050D01*
X3285810Y1703870D01*
X3290640Y1718680D01*
X3301900Y1729270D01*
X3314770Y1733500D01*
X3327640Y1729270D01*
X3338900Y1718680D01*
X3343730Y1703870D01*
X3340510Y1689050D01*
X3332470Y1678470D01*
X3322810Y1674230D01*
X3306730D01*
X3292250Y1667880D01*
X3282600Y1655180D01*
X3279380Y1640370D01*
X3282600Y1625550D01*
X3290640Y1614960D01*
X3303510Y1608620D01*
X3314770Y1606500D01*
G01X3542290Y1864480D02*
Y2054980D01*
X3601550D01*
X3620520Y2045450D01*
X3632370Y2032750D01*
X3637110Y2007350D01*
X3632370Y1981950D01*
X3618150Y1966080D01*
X3601550Y1956550D01*
X3542290D01*
G01X3601550D02*
X3637110Y1864480D01*
G01X3808650D02*
Y2054980D01*
X3720930Y1918460D01*
X3839470D01*
G01X4176370Y243000D02*
Y151980D01*
X4182800Y132930D01*
X4195670Y120230D01*
X4211760Y116000D01*
X4227850Y120230D01*
X4240720Y132930D01*
X4247150Y151980D01*
Y243000D01*
G01X4338080Y116000D02*
X4341300Y143510D01*
X4346130Y166800D01*
X4352560Y187970D01*
X4360600Y211250D01*
X4373470Y243000D01*
X4309130D01*
G01X3949230Y798580D02*
Y989080D01*
X4008490D01*
X4027460Y979550D01*
X4039310Y966850D01*
X4044050Y941450D01*
X4039310Y916050D01*
X4025090Y900180D01*
X4008490Y890650D01*
X3949230D01*
G01X4008490D02*
X4044050Y798580D01*
G01X4187140D02*
X4203730Y801750D01*
X4222700Y811280D01*
X4234550Y827150D01*
X4239290Y849380D01*
X4234550Y871600D01*
X4220330Y890650D01*
X4198990Y900180D01*
X4175290D01*
X4161060Y906530D01*
X4149210Y922400D01*
X4144470Y944630D01*
X4151580Y966850D01*
X4168170Y982730D01*
X4187140Y989080D01*
X4206100Y982730D01*
X4222700Y966850D01*
X4229810Y944630D01*
X4225070Y922400D01*
X4213220Y906530D01*
X4198990Y900180D01*
X4175290D01*
X4153950Y890650D01*
X4139730Y871600D01*
X4134990Y849380D01*
X4139730Y827150D01*
X4151580Y811280D01*
X4170550Y801750D01*
X4187140Y798580D01*
G01X4199230Y978580D02*
Y1169080D01*
X4258490D01*
X4277460Y1159550D01*
X4289310Y1146850D01*
X4294050Y1121450D01*
X4289310Y1096050D01*
X4275090Y1080180D01*
X4258490Y1070650D01*
X4199230D01*
G01X4258490D02*
X4294050Y978580D01*
G01X4396840Y1000800D02*
X4413430Y984930D01*
X4432400Y978580D01*
X4451360Y984930D01*
X4467960Y1003970D01*
X4479810Y1032560D01*
X4484550Y1061130D01*
Y1096050D01*
X4479810Y1124630D01*
X4467960Y1150030D01*
X4453730Y1162730D01*
X4437140Y1169080D01*
X4418170Y1162730D01*
X4403950Y1150030D01*
X4394470Y1130980D01*
X4389730Y1105580D01*
X4394470Y1083360D01*
X4406320Y1061130D01*
X4420550Y1048430D01*
X4437140Y1045250D01*
X4456100Y1051600D01*
X4470330Y1067480D01*
X4484550Y1096050D01*
G01X3995130Y1185520D02*
Y1376020D01*
X4054390D01*
X4073360Y1366490D01*
X4085210Y1353790D01*
X4089950Y1328390D01*
X4085210Y1302990D01*
X4070990Y1287120D01*
X4054390Y1277590D01*
X3995130D01*
G01X4054390D02*
X4089950Y1185520D01*
G01X4233040D02*
Y1376020D01*
X4204590Y1337920D01*
G01Y1185520D02*
X4261480D01*
G01X4423540Y1376020D02*
X4404570Y1369670D01*
X4390350Y1353790D01*
X4380870Y1334750D01*
X4373760Y1309340D01*
X4371390Y1280770D01*
X4373760Y1252190D01*
X4380870Y1226790D01*
X4390350Y1207740D01*
X4404570Y1191870D01*
X4423540Y1185520D01*
X4442500Y1191870D01*
X4456730Y1207740D01*
X4466210Y1226790D01*
X4473320Y1252190D01*
X4475690Y1280770D01*
X4473320Y1309340D01*
X4466210Y1334750D01*
X4456730Y1353790D01*
X4442500Y1369670D01*
X4423540Y1376020D01*
G01X4005130Y1745520D02*
Y1936020D01*
X4064390D01*
X4083360Y1926490D01*
X4095210Y1913790D01*
X4099950Y1888390D01*
X4095210Y1862990D01*
X4080990Y1847120D01*
X4064390Y1837590D01*
X4005130D01*
G01X4064390D02*
X4099950Y1745520D01*
G01X4243040D02*
Y1936020D01*
X4214590Y1897920D01*
G01Y1745520D02*
X4271480D01*
G01X4433540D02*
Y1936020D01*
X4405090Y1897920D01*
G01Y1745520D02*
X4461980D01*
G01X4513340Y2677000D02*
Y2585980D01*
X4519770Y2566930D01*
X4532640Y2554230D01*
X4548730Y2550000D01*
X4564820Y2554230D01*
X4577690Y2566930D01*
X4584120Y2585980D01*
Y2677000D01*
G01X4647700Y2602910D02*
X4658970Y2617730D01*
X4668620Y2626200D01*
X4681490Y2630430D01*
X4692750Y2626200D01*
X4700790Y2617730D01*
X4707230Y2605030D01*
X4708840Y2590220D01*
X4707230Y2577510D01*
X4700790Y2564810D01*
X4691140Y2554230D01*
X4679880Y2550000D01*
X4667010Y2554230D01*
X4655750Y2566930D01*
X4649310Y2585980D01*
X4647700Y2607150D01*
X4650920Y2634660D01*
X4655750Y2649490D01*
X4663790Y2664300D01*
X4675050Y2674880D01*
X4686310Y2677000D01*
X4697570Y2672770D01*
X4705620Y2662180D01*
M02*
