G04 ================== begin FILE IDENTIFICATION RECORD ==================*
G04 Layout Name:  esquematicotesis.brd*
G04 Film Name:    10-SSBOTTOM*
G04 File Format:  Gerber RS274X*
G04 File Origin:  Cadence Allegro 24.1-S005*
G04 Origin Date:  Sun Oct  5 21:57:09 2025*
G04 *
G04 Layer:  USER PART NUMBER/SILKSCREEN_BOTTOM*
G04 Layer:  TOLERANCE/SILKSCREEN_BOTTOM*
G04 Layer:  REF DES/SILKSCREEN_BOTTOM*
G04 Layer:  PACKAGE GEOMETRY/SILKSCREEN_BOTTOM*
G04 Layer:  DEVICE TYPE/SILKSCREEN_BOTTOM*
G04 Layer:  COMPONENT VALUE/SILKSCREEN_BOTTOM*
G04 Layer:  BOARD GEOMETRY/SILKSCREEN_BOTTOM*
G04 *
G04 Offset:    (0.0000 0.0000)*
G04 Mirror:    No*
G04 Mode:      Positive*
G04 Rotation:  0*
G04 FullContactRelief:  No*
G04 UndefLineWidth:     0.1000*
G04 ================== end FILE IDENTIFICATION RECORD ====================*
%FSLAX25Y25*MOMM*%
%IR0*IPPOS*OFA0.00000B0.00000*MIA0B0*SFA1.00000B1.00000*%
%ADD10C,.2*%
%ADD11C,.127*%
%ADD12C,.1524*%
%ADD13C,.508*%
%ADD14C,.1*%
G75*
%LPD*%
G75*
G54D10*
G01X705000Y1400000D02*
G03I-10000J0D01*
G54D11*
G01X625000Y1795000D02*
X175000D01*
Y1205000D01*
X625000D01*
Y1795000D01*
G54D12*
G01X178530Y609820D02*
Y840960D01*
G01D02*
X300960D01*
G01D02*
Y609820D01*
G01D02*
X178530D01*
G54D13*
G01X4838100Y594410D02*
G02I-38100J0D01*
G54D14*
G01X610770Y628580D02*
Y819080D01*
X551510D01*
X532540Y809550D01*
X520690Y796850D01*
X515950Y771450D01*
X520690Y746050D01*
X534910Y730180D01*
X551510Y720650D01*
X610770D01*
G01X551510D02*
X515950Y628580D01*
G01X425010Y666680D02*
X410790Y644450D01*
X391830Y631750D01*
X370490Y628580D01*
X351520Y631750D01*
X332560Y647630D01*
X320710Y666680D01*
X318340Y685730D01*
X323080Y707950D01*
X339670Y723830D01*
X356270Y730180D01*
X377600D01*
G01X356270D02*
X342040Y739700D01*
X330190Y755580D01*
X325450Y774630D01*
X330190Y793680D01*
X342040Y809550D01*
X363380Y819080D01*
X384710Y815910D01*
X406050Y803200D01*
G01X526660Y940000D02*
Y1067000D01*
X494490D01*
X481620Y1060650D01*
X471970Y1052180D01*
X463920Y1039490D01*
X457490Y1024660D01*
X455880Y1003500D01*
X457490Y982330D01*
X463920Y967510D01*
X471970Y954810D01*
X481620Y946350D01*
X494490Y940000D01*
X526660D01*
G01X392300Y1045830D02*
X382640Y1058530D01*
X371380Y1064880D01*
X358510Y1067000D01*
X342430Y1062770D01*
X331160Y1052180D01*
X327950Y1039490D01*
X329560Y1026780D01*
X335990Y1016200D01*
X368160Y995030D01*
X382640Y980220D01*
X392300Y959050D01*
X395510Y940000D01*
X327950D01*
G01X402130Y2007000D02*
Y1915980D01*
X395700Y1896930D01*
X382830Y1884230D01*
X366740Y1880000D01*
X350650Y1884230D01*
X337780Y1896930D01*
X331350Y1915980D01*
Y2007000D01*
G01X272590Y1905400D02*
X262940Y1890580D01*
X250070Y1882120D01*
X235590Y1880000D01*
X222720Y1882120D01*
X209850Y1892700D01*
X201810Y1905400D01*
X200200Y1918100D01*
X203420Y1932910D01*
X214680Y1943500D01*
X225940Y1947730D01*
X240420D01*
G01X225940D02*
X216290Y1954080D01*
X208240Y1964660D01*
X205030Y1977370D01*
X208240Y1990070D01*
X216290Y2000650D01*
X230770Y2007000D01*
X245240Y2004880D01*
X259720Y1996420D01*
M02*
