G04 ================== begin FILE IDENTIFICATION RECORD ==================*
G04 Layout Name:  esquematicotesis.brd*
G04 Film Name:    2-SMTOP*
G04 File Format:  Gerber RS274X*
G04 File Origin:  Cadence Allegro 24.1-S005*
G04 Origin Date:  Sun Oct  5 21:57:09 2025*
G04 *
G04 Layer:  VIA CLASS/SOLDERMASK_TOP*
G04 Layer:  PIN/SOLDERMASK_TOP*
G04 Layer:  DRC ERROR CLASS/SOLDERMASK_TOP*
G04 *
G04 Offset:    (0.0000 0.0000)*
G04 Mirror:    No*
G04 Mode:      Positive*
G04 Rotation:  0*
G04 FullContactRelief:  No*
G04 UndefLineWidth:     0.1000*
G04 ================== end FILE IDENTIFICATION RECORD ====================*
%FSLAX25Y25*MOMM*%
%IR0*IPPOS*OFA0.00000B0.00000*MIA0B0*SFA1.00000B1.00000*%
%ADD22C,.5001*%
%ADD21R,.5999X2.05*%
%ADD25R,2.794X.889*%
%ADD16R,.5588X.5588*%
%ADD20R,1.825X1.1001*%
%ADD19R,1.89X1.5001*%
%ADD17R,.76X.4201*%
%ADD11C,1.508*%
%ADD13C,1.1176*%
%ADD10C,3.683*%
%ADD26C,1.2954*%
%ADD12R,1.508X1.508*%
%ADD23R,.8128X.254*%
%ADD18R,1.4478X4.191*%
%ADD24R,5.0038X2.4892*%
%ADD15R,.8128X.9652*%
%ADD14R,.9652X.8128*%
%LPD*%
G75*
G54D10*
X350000Y350000D03*
Y2650000D03*
X6150000Y350000D03*
Y2650000D03*
G54D11*
X455000Y1600000D03*
G54D20*
X3378750Y621000D03*
X4021250D03*
G54D12*
X455000Y1400000D03*
G54D21*
X3570000Y668500D03*
X3830000D03*
X3765000D03*
X3700000D03*
X3635000D03*
G54D13*
X1090000Y440000D03*
X963940Y1140000D03*
X880000Y870000D03*
X1090000Y850000D03*
X670000Y1600000D03*
X700000Y1400000D03*
X1643500Y1304180D03*
X2070000Y1120000D03*
X2011440Y927760D03*
X2010000Y1440000D03*
X2310000Y850000D03*
X3245310Y385000D03*
X3254310Y621000D03*
X3530000Y1780000D03*
X3250000Y1530000D03*
X3340000Y1430000D03*
X4154680Y385000D03*
X3830000Y804170D03*
X3951120Y1140000D03*
X4145680Y621000D03*
X3890000Y1540000D03*
X4168880Y1450000D03*
Y1650000D03*
X3910000Y1430000D03*
X4617120Y1900000D03*
G54D22*
X3500000Y600000D03*
X3900000D03*
G54D14*
X880000Y730000D03*
Y587760D03*
X1090000Y730000D03*
Y587760D03*
X1290000Y730000D03*
Y587760D03*
X1920000Y1070000D03*
Y927760D03*
G54D23*
X3450300Y1380000D03*
Y1430000D03*
Y1480000D03*
Y1530000D03*
Y1580000D03*
X3729700D03*
Y1530000D03*
Y1480000D03*
Y1430000D03*
Y1380000D03*
G54D15*
X1190000Y1140000D03*
X1047760D03*
X1500000Y1490000D03*
X1642240D03*
G54D24*
X5025000Y870000D03*
Y2230000D03*
G54D16*
X1500000Y900000D03*
X1606680D03*
X1610000Y730000D03*
X1503320D03*
X1500000Y560000D03*
X1606680D03*
X3580000Y1140000D03*
Y1033320D03*
X3730000Y1140000D03*
Y1033320D03*
X3880000Y1140000D03*
Y1033320D03*
X3730000Y1780000D03*
X3623320D03*
X4240000Y1450000D03*
Y1650000D03*
X4346680Y1450000D03*
Y1650000D03*
G54D25*
X4800000Y1200000D03*
Y1900000D03*
Y1650000D03*
Y1450000D03*
G54D26*
X5185000Y1300000D03*
Y1800000D03*
G54D17*
X1496500Y1095000D03*
Y1145000D03*
Y1195000D03*
Y1245000D03*
X1643500D03*
Y1195000D03*
Y1145000D03*
Y1095000D03*
G54D18*
X2597960Y1200000D03*
X2222040D03*
G54D19*
X3373000Y385000D03*
X4027000D03*
M02*
