G04 ================== begin FILE IDENTIFICATION RECORD ==================*
G04 Layout Name:  esquematicotesis.brd*
G04 Film Name:    4-TOPL*
G04 File Format:  Gerber RS274X*
G04 File Origin:  Cadence Allegro 24.1-S005*
G04 Origin Date:  Sun Oct  5 21:57:09 2025*
G04 *
G04 Layer:  VIA CLASS/TOP*
G04 Layer:  PIN/TOP*
G04 Layer:  ETCH/TOP*
G04 *
G04 Offset:    (0.0000 0.0000)*
G04 Mirror:    No*
G04 Mode:      Positive*
G04 Rotation:  0*
G04 FullContactRelief:  No*
G04 UndefLineWidth:     0.1000*
G04 ================== end FILE IDENTIFICATION RECORD ====================*
%FSLAX25Y25*MOMM*%
%IR0*IPPOS*OFA0.00000B0.00000*MIA0B0*SFA1.00000B1.00000*%
%ADD22C,.5001*%
%ADD10C,.635*%
%ADD13C,.6096*%
%ADD21R,.4X1.8499*%
%AMMACRO17*
4,1,44,-.2901,.16,
.2901,.16,
.297029,.159374,
.303744,.157554,
.310041,.154596,
.315729,.15059,
.320635,.145656,
.324609,.139946,
.327532,.133632,
.329313,.126907,
.3299,.119974,
.3299,.1199,
.3299,-.1199,
.329326,-.126834,
.327557,-.133562,
.324646,-.139881,
.320682,-.145599,
.315786,-.150542,
.310106,-.154559,
.303814,-.157529,
.297102,-.159361,
.290174,-.16,
.2901,-.16,
-.2901,-.16,
-.297029,-.159374,
-.303744,-.157554,
-.310041,-.154596,
-.315729,-.15059,
-.320635,-.145656,
-.324609,-.139946,
-.327532,-.133632,
-.329313,-.126907,
-.3299,-.119974,
-.3299,-.1199,
-.3299,.1199,
-.329326,.126834,
-.327557,.133562,
-.324646,.139881,
-.320682,.145599,
-.315786,.150542,
-.310106,.154559,
-.303814,.157529,
-.297102,.159361,
-.290174,.16,
-.2901,.16,
0.0*
%
%ADD17MACRO17*%
%ADD25R,2.794X.889*%
%ADD16R,.5588X.5588*%
%ADD20R,1.4751X.8999*%
%ADD19R,1.6901X1.3*%
%ADD11C,1.3081*%
%ADD12R,1.3081X1.3081*%
%ADD26C,1.2954*%
%ADD23R,.8128X.254*%
%ADD18R,1.4478X4.191*%
%ADD24R,5.0038X2.4892*%
%ADD15R,.8128X.9652*%
%ADD14R,.9652X.8128*%
%ADD27C,.3*%
%ADD28C,.4*%
%ADD29C,.127*%
G75*
%LPD*%
G75*
G54D10*
X350000Y350000D03*
Y2650000D03*
X6150000Y350000D03*
Y2650000D03*
G54D11*
X455000Y1600000D03*
G54D20*
X3378750Y621000D03*
X4021250D03*
G54D12*
X455000Y1400000D03*
G54D21*
X3570000Y668500D03*
X3830000D03*
X3765000D03*
X3700000D03*
X3635000D03*
G54D13*
X1090000Y440000D03*
X963940Y1140000D03*
X880000Y870000D03*
X1090000Y850000D03*
X670000Y1600000D03*
X700000Y1400000D03*
X1643500Y1304180D03*
X2070000Y1120000D03*
X2011440Y927760D03*
X2010000Y1440000D03*
X2310000Y850000D03*
X3245310Y385000D03*
X3254310Y621000D03*
X3530000Y1780000D03*
X3250000Y1530000D03*
X3340000Y1430000D03*
X4154680Y385000D03*
X3830000Y804170D03*
X3951120Y1140000D03*
X4145680Y621000D03*
X3890000Y1540000D03*
X4168880Y1450000D03*
Y1650000D03*
X3910000Y1430000D03*
X4617120Y1900000D03*
G54D22*
X3500000Y600000D03*
X3900000D03*
G54D14*
X880000Y730000D03*
Y587760D03*
X1090000Y730000D03*
Y587760D03*
X1290000Y730000D03*
Y587760D03*
X1920000Y1070000D03*
Y927760D03*
G54D23*
X3450300Y1380000D03*
Y1430000D03*
Y1480000D03*
Y1530000D03*
Y1580000D03*
X3729700D03*
Y1530000D03*
Y1480000D03*
Y1430000D03*
Y1380000D03*
G54D15*
X1190000Y1140000D03*
X1047760D03*
X1500000Y1490000D03*
X1642240D03*
G54D24*
X5025000Y870000D03*
Y2230000D03*
G54D16*
X1500000Y900000D03*
X1606680D03*
X1610000Y730000D03*
X1503320D03*
X1500000Y560000D03*
X1606680D03*
X3580000Y1140000D03*
Y1033320D03*
X3730000Y1140000D03*
Y1033320D03*
X3880000Y1140000D03*
Y1033320D03*
X3730000Y1780000D03*
X3623320D03*
X4240000Y1450000D03*
Y1650000D03*
X4346680Y1450000D03*
Y1650000D03*
G54D25*
X4800000Y1200000D03*
Y1900000D03*
Y1650000D03*
Y1450000D03*
G54D26*
X5185000Y1300000D03*
Y1800000D03*
G54D17*
X1496500Y1095000D03*
Y1145000D03*
Y1195000D03*
Y1245000D03*
X1643500D03*
Y1195000D03*
Y1145000D03*
Y1095000D03*
G54D27*
G01X3623320Y1780000D02*
X3530000D01*
G01X3450300Y1480000D02*
Y1430000D01*
G01D02*
X3340000D01*
G01X3729700Y1480000D02*
X3830000D01*
X3890000Y1540000D01*
G01X3729700Y1480000D02*
Y1530000D01*
G01Y1580000D02*
Y1724060D01*
X3730000Y1724360D01*
Y1780000D01*
G54D18*
X2597960Y1200000D03*
X2222040D03*
G54D28*
G01X1090000Y587760D02*
Y440000D01*
G01X1290000Y587760D02*
X1090000D01*
G01D02*
X880000D01*
G01Y730000D02*
Y870000D01*
G01X1090000Y730000D02*
Y850000D01*
G01Y730000D02*
X1290000D01*
G01X1500000Y560000D02*
X1398720D01*
X1370960Y587760D01*
X1290000D01*
G01X1496500Y1245000D02*
Y1405540D01*
X1500000Y1409040D01*
Y1490000D01*
G01X1643500Y1195000D02*
X1790000D01*
G01D02*
X2111950D01*
X2116950Y1200000D01*
X2222040D01*
G01X1642240Y1490000D02*
X1750000D01*
X1790000Y1450000D01*
Y1195000D01*
G01X1496500Y1095000D02*
Y964140D01*
X1500000Y960640D01*
Y900000D01*
G01X1290000Y730000D02*
X1503320D01*
G01X1606680Y900000D02*
Y793960D01*
X1610000Y790640D01*
Y730000D01*
G01D02*
Y623960D01*
X1606680Y620640D01*
Y560000D01*
G01X4800000Y1200000D02*
X4704750D01*
X4604750Y1300000D01*
X4060000D01*
X4050000Y1310000D01*
Y1810000D01*
X3930000Y1930000D01*
X3433050D01*
X2703050Y1200000D01*
X2597960D01*
G01D02*
Y957750D01*
X2590000Y949790D01*
Y930000D01*
X2510000Y850000D01*
X2310000D01*
G01X3250000Y1530000D02*
Y1061000D01*
X3570000Y741000D01*
Y668500D01*
G01X3450300Y1580000D02*
Y1530000D01*
G01D02*
X3250000D01*
G01X3729700Y1430000D02*
X3910000D01*
G54D19*
X3373000Y385000D03*
X4027000D03*
G54D29*
G01X455000Y1600000D02*
X670000D01*
G01X455000Y1400000D02*
X700000D01*
G01X1047760Y1140000D02*
X963940D01*
G01X1190000D02*
X1439450D01*
X1444450Y1145000D01*
X1496500D01*
G01X1643500Y1245000D02*
Y1304180D01*
G01X2010000Y1440000D02*
X1840000Y1610000D01*
X1380000D01*
X1330000Y1560000D01*
Y1290000D01*
X1425000Y1195000D01*
X1496500D01*
G01X1920000Y927760D02*
X2011440D01*
G01X2070000Y1120000D02*
Y986320D01*
X2011440Y927760D01*
G01X1920000Y1070000D02*
X1820000D01*
X1745000Y1145000D01*
X1643500D01*
G01X3373000Y385000D02*
X3245310D01*
G01X3378750Y621000D02*
X3254310D01*
G01X4027000Y385000D02*
X4154680D01*
G01X3830000Y668500D02*
Y804170D01*
G01X3580000Y1140000D02*
X3730000D01*
G01D02*
X3880000D01*
G01D02*
X3951120D01*
G01X4021250Y621000D02*
X4145680D01*
G01X3765000Y668500D02*
Y918320D01*
X3880000Y1033320D01*
G01X3700000Y668500D02*
Y1003320D01*
X3730000Y1033320D01*
G01X3635000Y668500D02*
Y978320D01*
X3580000Y1033320D01*
G01X4240000Y1450000D02*
X4168880D01*
G01X4240000Y1650000D02*
X4168880D01*
G01X4800000Y1900000D02*
X4617120D01*
G01X4800000Y1650000D02*
Y1579050D01*
X4787300Y1566350D01*
X4359380D01*
X4346680Y1579050D01*
Y1650000D01*
G01X4800000Y1450000D02*
Y1520950D01*
X4787300Y1533650D01*
X4359380D01*
X4346680Y1520950D01*
Y1450000D01*
M02*
