G04 ================== begin FILE IDENTIFICATION RECORD ==================*
G04 Layout Name:  esquematicotesis.brd*
G04 Film Name:    6-INT2*
G04 File Format:  Gerber RS274X*
G04 File Origin:  Cadence Allegro 24.1-S005*
G04 Origin Date:  Sun Oct  5 21:57:09 2025*
G04 *
G04 Layer:  VIA CLASS/BAT+*
G04 Layer:  PIN/BAT+*
G04 Layer:  ETCH/BAT+*
G04 *
G04 Offset:    (0.0000 0.0000)*
G04 Mirror:    No*
G04 Mode:      Positive*
G04 Rotation:  0*
G04 FullContactRelief:  No*
G04 UndefLineWidth:     0.1000*
G04 ================== end FILE IDENTIFICATION RECORD ====================*
%FSLAX25Y25*MOMM*%
%IR0*IPPOS*OFA0.00000B0.00000*MIA0B0*SFA1.00000B1.00000*%
%ADD13C,.5001*%
%ADD10C,.635*%
%ADD12C,.6096*%
%ADD11C,1.3081*%
%ADD14C,1.2954*%
%ADD15C,.864*%
G75*
%LPD*%
G75*
G36*
G01X713440Y1600000D02*
X3530000D01*
Y1170000D01*
X995020D01*
G03X932860I-31080J-29990D01*
G01X580000D01*
Y1600000D01*
X626560D01*
X627040Y1595450D01*
G03X712960I42960J4550D01*
G01X713440Y1600000D01*
G37*
%LPC*%
G75*
G54D15*
X1643500Y1304180D03*
X2010000Y1440000D03*
X3250000Y1530000D03*
%LPD*%
G75*
G54D10*
X350000Y350000D03*
Y2650000D03*
X6150000Y350000D03*
Y2650000D03*
G54D11*
X455000Y1600000D03*
Y1400000D03*
G54D12*
X1090000Y440000D03*
X963940Y1140000D03*
X880000Y870000D03*
X1090000Y850000D03*
X670000Y1600000D03*
X700000Y1400000D03*
X1643500Y1304180D03*
X2070000Y1120000D03*
X2011440Y927760D03*
X2010000Y1440000D03*
X2310000Y850000D03*
X3245310Y385000D03*
X3254310Y621000D03*
X3530000Y1780000D03*
X3250000Y1530000D03*
X3340000Y1430000D03*
X4154680Y385000D03*
X3830000Y804170D03*
X3951120Y1140000D03*
X4145680Y621000D03*
X3890000Y1540000D03*
X4168880Y1450000D03*
Y1650000D03*
X3910000Y1430000D03*
X4617120Y1900000D03*
G54D13*
X3500000Y600000D03*
X3900000D03*
G54D14*
X5185000Y1300000D03*
Y1800000D03*
M02*
